# xmcd
#
# Track frame offsets:
#	150
#	11309
#	30112
#	44979
#	60909
#	78492
#	92615
#	110809
#	126561
#	145519
#	159881
#	176964
#	197584
#	218773
#	234417
#	251681
#	269392
#	284767
#
# Disc length: 3939
#
# Revision: 3
# Processed by: cddbd v1.5.1PL0 Copyright (c) Steve Scherf et al.
# Submitted via: CDex 1.51
# Normalized: r2:DSETVAR1
#
DISCID=fc0f6112
DTITLE=Various Artist - chart hits 04-07
DYEAR=2004
DGENRE=Top 40
TTITLE0=eamon - i love them ho's bpm 60
TTITLE1=shannon noll - learn to fly bpm 68
TTITLE2=frankee - f.u.r.b. (f u right back) bpm 71
TTITLE3=n.e.r.d. - maybe bpm 77
TTITLE4=avril lavigne - my happy ending bpm 85
TTITLE5=the 411 feat. ghostface killah - on my knees 90
TTITLE6=d 12 - how come bpm 90
TTITLE7=anastacia - sick and tired bpm 100
TTITLE8=park slope feat. loustar and the hoodstars - la-dee da-dee (we like to party) bpm 101
TTITLE9=kayne taylor - heartbreaker bpm 116
TTITLE10=nina sky - move ya body bpm 121
TTITLE11=starsailor - four to the floor bpm 123
TTITLE12=george michael - flawless (go to the city) bpm 125
TTITLE13=mr timothy feat. inaya day - i am tha 1bpm 129
TTITLE14=freestylers - push up bpm 135
TTITLE15=nick skitz feat. the choirboys - run to paradise bpm 140
TTITLE16=offspring - spare me the details bpm 147
TTITLE17=spiderbait - fucken awsome bpm 152
EXTD=YEAR: 2004
EXTT0=
EXTT1=
EXTT2=
EXTT3=
EXTT4=
EXTT5=
EXTT6=
EXTT7=
EXTT8=
EXTT9=
EXTT10=
EXTT11=
EXTT12=
EXTT13=
EXTT14=
EXTT15=
EXTT16=
EXTT17=
PLAYORDER=
